<mxfile host="app.diagrams.net" modified="2024-03-18T02:17:06.635Z" agent="Mozilla/5.0 (Windows NT 10.0; Win64; x64) AppleWebKit/537.36 (KHTML, like Gecko) Chrome/122.0.0.0 Safari/537.36" version="24.0.7" etag="6azIH7_TgpT5YsAfrzIX" type="github">
  <diagram name="Trang-1" id="hJPLRZeZE8oaD7gToTpJ">
    <mxGraphModel>
      <root>
        <mxCell id="0" />
        <mxCell id="1" parent="0" />
      </root>
    </mxGraphModel>
  </diagram>
</mxfile>
